<?xml version="1.0" encoding="UTF-8"?>
<svg xmlns="http://www.w3.org/2000/svg" version="1.1" xmlns:xlink="http://www.w3.org/1999/xlink" viewBox="0 0 856 856">
  <!-- Generator: Adobe Illustrator 29.6.0, SVG Export Plug-In . SVG Version: 2.1.1 Build 207)  -->
  <defs>
    <style>
      .st0 {
        fill: #d8d8d8;
      }

      .st1 {
        fill: #9c9c9c;
      }

      .st2 {
        fill: #9a9a9a;
      }

      .st3 {
        fill: #fcfcfc;
      }

      .st4 {
        fill: #b8b8b8;
      }

      .st5 {
        fill: #d7d7d7;
      }

      .st6 {
        fill: #b1b1b1;
      }

      .st7 {
        fill: #fefefe;
      }

      .st8 {
        fill: #f0f0f0;
      }

      .st9 {
        fill: #8f8f8f;
      }

      .st10 {
        fill: #fff;
      }

      .st11 {
        fill: #cdcdcd;
      }

      .st12 {
        fill: #303030;
      }

      .st13 {
        fill: #9b9b9b;
      }

      .st14 {
        fill: #606060;
      }

      .st15 {
        fill: none;
      }

      .st16 {
        fill: #e2e2e2;
      }

      .st17 {
        fill: #e5e5e5;
      }

      .st18 {
        fill: #fbfbfb;
      }

      .st19 {
        fill: #f9f9f9;
      }

      .st20 {
        fill: #c7c7c7;
      }

      .st21 {
        fill: #909090;
      }

      .st22 {
        fill: #f1f1f1;
      }

      .st23 {
        fill: #8c8c8c;
      }

      .st24 {
        fill: silver;
      }

      .st25 {
        fill: #939393;
      }

      .st26 {
        fill: #878787;
      }

      .st27 {
        fill: #cbcbcb;
      }

      .st28 {
        fill: #868686;
      }

      .st29 {
        fill: #919191;
      }

      .st30 {
        fill: #d6d6d6;
      }

      .st31 {
        fill: #888;
      }

      .st32 {
        fill: #cfcfcf;
      }

      .st33 {
        fill: #010101;
      }

      .st34 {
        fill: #a9a9a9;
      }

      .st35 {
        fill: #b9b9b9;
      }

      .st36 {
        fill: #979797;
      }

      .st37 {
        fill: #c6c6c6;
      }

      .st38 {
        fill: #bcbcbc;
      }

      .st39 {
        fill: #fefefe;
      }

      .st40 {
        fill: #d4d4d4;
      }

      .st41 {
        fill: #a1a1a1;
      }

      .st42 {
        fill: #d2d2d2;
      }

      .st43 {
        fill: #eaeaea;
      }

      .st44 {
        clip-path: url(#clippath);
      }

      .st45 {
        fill: #818181;
      }

      .st46 {
        fill: #afafaf;
      }
    </style>
    <clipPath id="clippath">
      <rect class="st15" x="-259.2" y="-352.5" width="1396.4" height="1391.3"/>
    </clipPath>
  </defs>
  <g id="Layer_3">
    <rect class="st14" x="-10" y="-10" width="872" height="876"/>
  </g>
  <g id="Layer_1">
    <g class="st44">
      <path class="st20" d="M809.3,872.3c-21,18.7-49.9,24.9-73.9,39-20.3,11.9-46.7,32.2-62,50.1-17.8,20.9-49.8,83.7-52.6,110.5-.4,4.1,0,4.2,2.1.4,4.5-8.1,8.3-11.6,13.2-18.3,11.1-15.1,20.9-30.9,32.3-45.9,7.4-5.2,12.4-13.2,20.5-17.7,7.6-4.3,16.6-6.3,24.8-10.9,9-5,39.7-29.5,41-38.9.3-2.1-.4-9.6-4-9-5,.8-7.8,7.3-11,10.2-9.7,8.8-20.2,15.9-30.6,23.8-5.7.3-3.1-.9-.8-3.4,3.3-3.7,7.6-8.5,11-11.9,6.4-6.3,12.8-12.1,20.4-17,13.6-8.7,23.4-9.3,36.8-15,9.9-4.2,18.3-16.1,27.7-5.4,6.2,9.5,9.4,17.4,5,28.8l-15.2-3.3,2.5,5.1c74.4,43.6,162.6,74.3,231,127.4,9.1,7.1,30.6,29.2,38.4,33.2,3.3,1.7,4.7-1,5-1,2.2.2,7.1,6.3,8.5,8.5h-541.9c6-12.3,19.4-40.7,1.3-48-24.9-10-58.9,24.5-62.4,48h-113.8c18.8-22.5,42.5-39.8,65.4-57.8,31.5-24.8,63.9-42.9,94.3-66.2,9.6-7.4,17.7-8.7,27.8-13.8,37.4-19,77.8-40.3,106.4-70.3,9.5-9.9,19-13.9,28.9-22.1,57.5-47.7,103.4-148.5,114.7-221.6,21.6-139.4,53.9-278.4,56.8-420.5.3-13.9,1.5-28.1-.2-42.3-1.2-9.8-4-19.4-6.4-29l2.6-2.4c24.7-5,16.4,4.3,17.6,22.7,4.5,70.2-2.3,135.6-12.2,205.3-10,71-25.5,138.2-40,208-14,67.3-28.9,157.2-17.1,224.9,2.7,15.5,9.2,28.7,8,45.5Z"/>
      <path class="st31" d="M-230.3,1037c11.1-.8,5.7-2.1,13.7-7.5,59.2-40,184.8-87.5,255.6-91.1,3.5-.2,6.5,1.6,10,1.7l2.7-4.2c-6.8-5.5-11.8-13.6-6.9-22.2,8.7-15.2,17-1.5,27.2,1.9s5.9,2.4,5.2-2.6c.9.8,2.7,1.2,3.4,2.6v2.5s-6.8,0-6.8,0c-7.8-.9-17.3,1-16.5,10.8.2,2.2,2.7,4.4,2.9,6.2s-2.6,5.1,1.5,9.1c-12.3,13.2-19,24.4-11.4,42.3s8.5,12.1,7.7.8c-.6-9.7-3.8-10-1.3-21.7,20.7,20.5,50,31.7,66.9,56.2l12.9,21.9c-3.2-9.8-2.9-20.7-5.9-30.6-2.3-7.6-20-30.1-8.1-33.7,11.6-3.5,15,14.8,20,21.8l-4.2-28.9,11.8,26.4,8.6.8c1-29-19.7-48.5-42.5-62.9-15.4-15.2,1.4-22.6,15.3-9.3,4.9,4.7,7.7,13.2,11.9,17.8-4.7-1-4.1,2.7-3.1,5.6,1.5,4.1,9.8,9.2,12.8,14.4,22.8,39-1.2,104.5-4.7,146.5h-32.3c6.1-12.2,16.3-45.1,5.2-55.3-14.8-13.6-39,20.6-44.6,32-3.3,6.8-6.8,15.6-6.5,23.2h-349.9c-3.2-11.1-.3-21.4,5.4-31.1s40.6-43.4,43.9-43.6ZM85.2,1001.6l-6.4,7.4,8.5,10.2c-8.8,4.3-3.9,14.6,4.3,14.4,3.6,0,5.9-5,6.7-5,3,0,10.4,19.4,19.7,12.8,11.6-8.2-22.9-40.3-32.9-39.8Z"/>
      <path class="st8" d="M245.4,1111.8c-16.7-36-23.8-73.2-25.4-112.8,11.5-32.4,32.3-59.7,49.5-89,53.9,2.2,108.2,3.1,161.4-5.9,36.4-6.2,74.6-18.3,108.8-32.2,12.6-5.1,24.3-11.6,36.9-16.6,1.8,11-10,15.3-16.9,23-26.9,29.7-50.6,64.5-56.4,105-.4,1-5.1,5.1-6.5,6.3-7.7,6.3-22,11.6-31.1,17.3-36.3,23-86.2,55-115,86.3-12.3-.2-24.8,10.9-34,18.7h-71.3ZM377.9,987.8c-21.2-9.5-23-25.5-35.7-40.8-1.5-1.8-1.6-4.2-5.1-3.4-9.5,13.3-10.2,14.8-3.7,30,8.8,20.6,21.4,27.1,43.7,24.4,6.4-.8,8-4,4.2-9.5-1-.8-2.6-.4-3.4-.8Z"/>
      <path class="st6" d="M155.3,1111.8c7.3-48.2,25.1-97,7-145.1,2.3-2.5,10.8-10,11.7-3.6s-.7,18.6,0,27.2c3.2,40.6,15.2,83.5,28.9,121.5h-47.6Z"/>
      <path class="st26" d="M522.3,987.8c-30.4,23.3-62.9,41.4-94.3,66.2-22.9,18-46.6,35.3-65.4,57.8h-15.3c3.6-8,9.7-14.5,16.1-20.4,32.2-29.9,71-57.3,109.1-79.5,15.6-9.1,32.9-17.6,49.8-24.1Z"/>
      <path class="st27" d="M209.7,1031.9c5.1,27.1,13.7,53.7,22.1,79.8h-20.4c-7.2-18.4-12.1-37-17-56.1,2.4-7.5,5.1-15.2,9.8-21.6,1.8-2.5,2-5.1,5.5-2.1Z"/>
      <path class="st33" d="M116.3,1111.8h-8.5c-1.6-14,6.4-30.2,6.8-43.4s.3-5.6-2.6-7.6c-22.5,8.5-20.6,30.7-22.9,51h-18.7c-.3-7.6,3.2-16.4,6.5-23.2,5.6-11.5,29.7-45.6,44.6-32,11.1,10.2.9,43.1-5.2,55.3Z"/>
      <path class="st33" d="M537.5,1111.8h-8.5c5.1-11.4,13-22.5,11.9-35.7-8.8,9.9-11.2,24.2-17,35.7h-8.5c4.7-8.7,8.4-17.9,11.9-27.2,1.9-4.9,5-9.8,5.1-15.3-4.2-3.9-24.6,7.7-27.9,12-2.3,2.9-4.2,11-6,15.2-2.2,5.1-5.8,9.7-6.8,15.3h-15.3c3.5-23.5,37.5-58,62.4-48,18.1,7.3,4.8,35.7-1.3,48Z"/>
      <path class="st41" d="M107.8,1111.8h-18.7c2.3-20.3.4-42.5,22.9-51,2.9,2,2.7,4.4,2.6,7.6-.5,13.2-8.4,29.4-6.8,43.4Z"/>
      <path class="st34" d="M498.5,1096.5c5.3-2.2,11.9-13.6,16.5-14.9s14.1-2.6,12.4,3c-3.5,9.3-7.2,18.5-11.9,27.2h-23.8c1-5.6,4.6-10.2,6.8-15.3Z"/>
      <path class="st4" d="M350.7,1093.1c-4.5,4.9-9.4,12.4-11.9,18.7h-22.1c9.1-7.7,21.7-18.9,34-18.7Z"/>
      <path class="st45" d="M529.1,1111.8h-5.1c5.8-11.5,8.1-25.8,17-35.7,1.1,13.2-6.8,24.3-11.9,35.7Z"/>
      <path class="st35" d="M240.3,1111.8c-13.5-43.4-26.3-87.9-30.6-133.4-4.2-44.6,8.3-93.6,10.2-139.2,1.5-34.5-.3-69-6.9-102.8,2.9-.8,3.4,1.2,5.1,2.5,92.4,71.2,181.4,117.2,303.2,102.8,26.7-3.2,54.6-10.9,80.7-17,.3,3.6,0,7-.5,10.6-1.2,9.3-9.9,57.9-13.3,63.1s-9.1,6.2-12.6,9.5c-14.4,13.4-28,29.7-38.9,46-3.7,5.6-9.4,19.5-12.8,22.9s-20.8,10.5-27.2,12.7c1.4-1.1,6.1-5.3,6.5-6.3,5.9-40.4,29.5-75.2,56.4-105,6.9-7.6,18.8-12,16.9-23-12.6,4.9-24.4,11.5-36.9,16.6-34.2,13.9-72.4,26-108.8,32.2-53.2,9-107.5,8.2-161.4,5.9-17.2,29.3-38.1,56.6-49.5,89,1.6,39.6,8.7,76.8,25.4,112.8h-5.1Z"/>
      <path class="st8" d="M411.8,136.7c6.4-4.5,28.7-10.2,36.5-10.3s-1.3,10.3,5.1,10.2c7.1-4.3,10.7-13.2,18.2-15.8,12.9-4.6,98.8-17.4,108.9-14.4,2.7.8,5,5.1,8.5,6.8s37,13.5,36.9,9c.1-2.3-13.8-16-5.9-14.5s19.5,13.1,19.5,6l-3.4-4.2c18.4,2.7,46.2,4.1,61.2,15.3,1.4,1,4.2,1.6,4.6,2.1,1.1,1.6.3,4.6,1.3,6.4,3.1,5.8,6.3,10,7.7,17,5.7,28.1-7.6,18.5-27.6,20.9-24.7,2.9-74.1,23.3-94.6,37.9-9.8,7-9.7,6.6-13.7,17.7-5.8,15.8-.2,20.1-10.2,35.7-5.9,9.1-24.1,36.6-26.4,45.8s2.1,9.5,6.4,2.9c9.3-14.5,15.8-32.4,25.1-47.1l95.6-54.7,37.9-14.8c3.2-.7,2.1,0,2.3,2.3,1.6,13.9,1.7,29.4,1.7,43.4,0,8.3-1.6,15.6-1.8,22.9-.4,16.7,21.1,49.5,28.1,67.2,4.5,11.3,7.2,20.2,9.4,32.2,3.9,20.9,5,26.9-3.1,47-7,17.5-17.3,35.5-24.9,53.3-7.7,17.8-13.5,36.4-21.5,54-17.9.2-35,5.1-52.3,8s-6.9,2.3-8.5-.9c2-2.2,5.1-6.1,6.8-8.5,4.8-7,6.1-12.2,5.1-21.3-.8-7.4-3.4-8.1-6.8-12.7-3.9-5.3-25.6-39.9-32.3-34l25.1,36.8c2.1,2.7,2.8,5.8,3.7,9v11.9c-14.1-1.4-27.7,5.4-39.6,12.2-10.5,6-16.5,16.4-30.5,12.8-10.6-2.7-17-24.8-36.3-26.7s-9.4,3.5-15.3,6.5c-9.1,4.5-33.6,14.7-35.9,25.3-1.8,7.8,1.6,10.5,6.5,15.8-1,3.5-4.3,3.2-7.1,4-16.4,4.6-34.1,7.6-50.3,12.6-15.1,4.6-36.7,16.2-51.4,18.4s-9.1-.8-17,.7c-2.8.5-5.8.7-8.5,1.7-23-20.7-49-42.3-76.7-56.7-38.9-20.3-87.5-20.9-122.1-50.3.2-2.6-.7-2.2-1.7-3.4-3.8-22.3-15.4-42.7-21.3-64.5-5.8-21.5-18.7-86.1-13.6-105.4,4.1-15.6,36-46.8,48.4-58.6,48.7-46,115.3-78.2,180-95.2,4.2-1.1,8.7-.1,12.5-1.1,7.2-1.9,16.4-7.8,24.4-9.6s0,12.7.8,15.7l3.9,2.6c5-.4,20.6-17.8,24.9-21.9s1.4-2,3.4-3.4ZM214.8,277.7c-7.7,3.6-14,10.8-18.6,17.8,6.8,6.7,16.6.4,23.3-.5,75-9.9,151.6-11.9,227-22.7,10-1.4,27-2.4,33.3-10,1.2-1.4,3.2-3.8,3.1-5.6l-10.2-26.4c-73.5,2.1-152.4,4.6-222.2,29.5-9.6,3.4-29.5,11-35.7,17.8ZM574.9,301.5c-5.8,7.4-9.1,18.3-6.4,27.7,2.2,7.6,10,5.2,15,7.1,3.5,1.4,6.6,3.9,10.2,5.1,13.1,4.2,27.6,3.3,40.7-.8,3.1-.2,5.6-1.2,8.5-1.7,1,4.8-2.4,3.2-5.4,3.9-13,3.1-30.2,4.9-43.1,1.3-7.2-2-12.9-8.6-21.1-6.9.2,2-.9,3.7,1.1,5.2,2.7,2.1,20,9.4,23.7,9.9,23.6,3.2,49.4-2.6,69.2-15.5,16.1-10.5,39.9-28.7,31.7-50.6-2.3,0-2.1,4.1-3.4,6.8,3-7.7-4.1-11.6-5.1-15.3s2.9-1.5,0-4.2c-8.5-8-28.2-7.5-37.5-.9,3.9-5.2-1.2-3.7-4.1-3.2-8.6,1.6-21.5,5.4-29.9,8.3,4.4-3.7,11.9-5.8,17.4-7.2,4.8-1.3,24.5-6.4,27.6-6.4h33.1s-1-5.2-1-5.2c-33.5-9.4-82.8,5.2-110.9,24.9s-19.3,12.6-10.3,17.7ZM282.7,340.6c-30.2,9.3-54.4,28.2-50.9,63.7,4.5,46.8,78.8,50.6,112.5,37.8,16.1-6.1,26.9-13.5,40.3-23.4,10.8-7.9,36.8-26.4,40-39.1,1.2-4.8-.3-6.2-1-10.2,10.9-7.9-6.3-48.4-10.2-23.8-11.9-8.1-28.4-10-40.8-1.7-1.8-2.8-6.4-1.7-9.3-1.7-29.5-.4-66.6,3.9-90,23.8-18.3,15.6-22.3,42,.8,55.2,15.6,8.9,52,9,69.7,5.9-24.3,9.7-50.7,4.2-74.7-3.4-12.3-3.9-22.4-5.3-26.4-20.3-3.1-11.7.6-21.6,7.7-30.6,24.9-31.6,91.1-35.2,128.3-37.4,12.1-.7,24.4.5,36.5,0,.9-5.2-1.5-2.6-4.2-3.4-35.8-10.1-92.7-2.4-128.3,8.5ZM571.5,396.6c3.5-4.9-11.9-31-15.3-27.2-2.1,4.1,11.7,31.3,15.3,27.2ZM408.5,437.4c18.1-7.4,33.8-25.4,28.8-45.9-5.8,5.4-6.5,15.7-10.4,22.7s-19.9,21.7-18.4,23.2Z"/>
      <path class="st11" d="M637.8-201.3c33.7,50.1,61.7,103.5,91,156.2l.7,5.2c-9.8,0-20,.6-29.7,1.7-122.7,14.3-221.6,60.4-332.1,110.4-73.4,33.2-138.3,74.7-204.4,120.9-12.5,8.8-24.2,18.9-36.3,28.4-5.3,1.4-7-5.8-8.6-9.6-19.7-45.8-23.4-151.5-11.8-199.5,7.6-31.3,53.1-82.3,75-108.4,27.3-32.5,54.3-58.2,83.3-88.3s30.4-36.6,46.6-53.6c28.9-30.2,38.5-32.4,80.8-31.5,60.8,1.4,106.5,17,163.1,35.7,27.7,9.2,57.9,16.7,82.3,32.3Z"/>
      <path class="st20" d="M376.2-338.9c26.3,3.1,61.4,13.5,88,19.8,81.3,19.3,174.9,39.8,253.4,66,30.9,10.3,22.2,19.1,34.8,43.4,13,25.2,32.3,49.3,43.7,76.9,8.6,20.8,12.2,44.3,20,64.9,2.8,7.4,7.4,13.8,10.3,21.2l-15-.2c-12.3-26.1-19.1-56.1-30.5-82.5-6.8-15.7-17.2-29.8-25.5-44.1-10.5-18.2-19.5-44.5-39.3-54.1-21.4-10.4-62.9-21.4-87.1-28.5-67.4-19.7-160.7-46.7-229.8-50.5-39.1-2.2-50.8,8.4-80.5,29.9-23.6,17-39.3,33.2-59.6,53.4-6.8,3.8-14.7,10.8-20.4,16.1C171.9-145.5,90.1-49.6,45.2,29.2,21.7,70.4,8.8,119.4-3.9,165.2c-32.5,117.7-27.5,214.7-12.2,334,5.3,41.4,18.8,80.2,38.9,116.6,3.9,11.8,7.8,23.9,11.9,35.7,3.5,21.2,12,41.5,16.6,62.4.4,1.7,1.7,6-1.3,5.5-2.8-9-6.1-18-9.9-26.6-19.4-43.9-40-87.9-56.3-133.1-4.2-11.5-7.3-26.5-11.4-38.7-19.5-57.5-42.4-118.5-52.7-178.3-3.5-20.3-5.5-41.1-7.2-61.6-1.9-22.6-2.3-45.4-4.2-68-4.6,22.3-1.7,45.3-2.5,68-.5,12.8-3.1,26.6-1.7,39.9l-3.4,21.2c-8.4-38.7-22-81.8-23.9-121.4-2.3-48.5,31.8-108.3,51.4-152.6,1.6-3.7,1.5-12.1,6.5-12.2-1.3,6.3-4.1,12.5-4.9,18.9s-1.7,9.2,1.5,9.2C-52.4,40.3-34.8-3.3-19.6-47.5c3.7-10.8,8.6-23.7,9.3-34.9-11.5,16.8-18.5,36-27.6,53.9-1.7,3.3-2.2,4.5-2-.3,6-32.1,16.7-62.5,28.7-92.8,44.2-41.2,96.5-81.6,147.9-114.5,42.8-27.4,96.4-62,141.1-84.9,26-13.3,69.6-21.4,98.3-18Z"/>
      <path class="st26" d="M636.1,877.4c.9-4.9-2.3-3.8-5.5-3-11.1,2.7-21.1,11.3-31.8,14.9l13-67.6c11.1-7.4,21.1-10.2,30.2-20.9,63.2-75.2,104.6-192.2,117.8-288.2,12-87.2-3.7-166.5-47.1-242.6,5-27.8,2-58.8,7.2-86,.7-3.5,5.4-5.9,1.2-11.5l122.1-3.2c7.8,24.3,8,50.1,7,75.5-5.2,132.2-31.3,263.4-55.7,392.8-14.3,76.2-30.9,139.4-78.6,202.5.5-5.5-1-2.9-4-1.4-12.7,6.4-25.3,16.2-38.4,22.7-11.6,5.8-25.3,9.9-37.4,16.1Z"/>
      <path class="st21" d="M-16.2,559.7c16.4,45.2,36.9,89.2,56.3,133.1,3.8,8.6,7.2,17.6,9.9,26.6,3,.4,1.7-3.8,1.3-5.5-4.6-20.9-13.1-41.2-16.6-62.4,27.8,80.7,57.9,162.7,93.7,240.1,7.8,16.8,25.5,45.9,30,61.8s1.2,3.7-.5,3.9c-3.6-5.3-10.5-7.5-14.4-11.9-4.2-4.6-7.1-13.1-11.9-17.8-13.8-13.3-30.7-5.9-15.3,9.3-10.5-6.6-30.1-17.3-42.5-18.7h6.8s0-2.5,0-2.5c-.7-1.4-2.4-1.7-3.4-2.6-15.2-13.5-37.4-19.8-49.3-34.8-7.1-8.9-12.6-21.6-19.7-31.2-26.3-35.8-55.1-70.2-82.2-105.5.7-19-7.9-37.1-11.5-55.6-14.1-73.5-13.8-140.9-8.9-215.3.6-9.6,4.6-19.7,3.4-29.7,2.6-3,9.5,9.2,10.5,10.7,16.2,25.8,32,58.7,46.5,86,4.6,8.6,8.3,17.8,12.7,26.4l5.1-4.3Z"/>
      <path class="st24" d="M1048.9,2.5c-9.6-1.7-11,8.2-16.1,13.7-70.6,75.9-160,119.7-261.8,137.4-11.2,1.9-24.4-.7-33,10.3,14.7,0,29.5.2,44.2,0-1.8,2.8-6.4,1.7-9.3,1.7-18,.2-35.7-.4-53.5-1.7l-5.1-83.2c1.7-1.9,43.9,24.1,47.5,20.4,1-5.7-2.7-9.5-5.9-13.6-7.9-10-43.5-46.2-53.5-50.1-2.2-.9-4.6-.8-6.8-.8,9.3-20.6-11.8-6.5-21.4-5.2-16,2.1-36.2.4-52.5,1.9-42.2,3.7-84.6,14.7-125.9,18.5-1.9.2-6.1,1.6-5.7-1.5,22.4-6.6,43.9-16.2,66.2-23,75.4-22.7,149.2-39.7,228.4-43.4,87.4-4,178.4,1.1,264.2,18.8Z"/>
      <path class="st37" d="M637.8-201.3c-24.4-15.6-54.7-23.2-82.3-32.3-56.6-18.7-102.3-34.3-163.1-35.7-42.3-1-51.9,1.2-80.8,31.5-16.3,17-30.3,36.6-46.6,53.6-29,30.1-56,55.8-83.3,88.3-21.9,26.1-67.4,77.1-75,108.4-11.7,48-7.9,153.7,11.8,199.5,1.6,3.7,3.4,11,8.6,9.6,12-9.4,23.7-19.6,36.3-28.4,66.1-46.3,131-87.7,204.4-120.9-28.1,14.1-54.9,29.8-81.1,47.2-75.4,50.1-162.4,114.2-220.5,183.8-26.6,31.9-47.8,69-77.3,98.5-1.2-11.6-3-24.9-3.5-36.5C-19.1,253.9,6.9,166.5,42.8,64.1c9.6-27.2,35.2-54.2,50.5-78.6.4,14.1-4.6,27.7-5.9,41.6-4.1,42.7-3.3,96.6,3.7,139,2.7,16.4,8.1,32.1,9.9,48.7-12.8-37.9-16.2-78-18.8-118-1.9-14.4,3.6-30.3,1.8-44.3-.3-2.4-.9-4.9-3.4-2.5-8.4,17.8-13.2,36.3-16.5,55.7-9.2,53.2-10.1,107.9,4.6,160,4.4.6,7.7-2.7,11-5.1,8-5.8,17-14.3,24.9-21,2.5-2,4.2-1.3,3.1-6.2,1.8,4.5,4,10.3,7.6,13.6,7.8,0-5.7-28.2-6.4-30.9-23.1-79.4-23-169.6-2.1-249.3,31-40.1,58.7-84.1,93.5-120.6,20.7-21.7,42.9-40.8,64.5-61.2,14.4-13.5,45-49.9,61.6-55.7,11.4-4,46.4-9.6,59-10.6,51.5-3.9,105.5-2.2,155.8,9,11.2,2.5,46.5,10.5,54.6,15,15.3,8.4,34,40.1,41.8,55.8Z"/>
      <path class="st26" d="M70.4,727.9c-17.4-48.6-36.6-100.7-51.3-150-.8-2.7-2-5-1.3-8,11,1,12.4,13.3,17.3,20.9,4.6,7.2,22.4,23.5,29.7,28,4.6,2.8,7.8,3.9,13.3,3.8,6.5,0,9.9-3.7,13.4-3.6,9,.4,30.7,25.9,38.4,33.2,15.3,14.4,30.8,29.3,46,42.3,3,2.6,22.2,25.4,24,28.6,10.8,19.5,14.2,77.8,13.3,100.6-1.2,29.7-3.9,72.8-8.7,101.7-.8,4.8-2.6,9.6-3.5,14.4-1.1,1-4-.1-4.8.3,12.8-29.6-18.4-30.4-17-1.7-5.8.1-11.5-12.8-13.6-13.6,6.6-35.1,2.7-71.2.5-106.6-15-14.5-32.8-26.1-48-40.3-16.6-15.4-30.4-33.1-44.4-50.7-2.2-2.8-3.4-5.2-3.1.6Z"/>
      <path class="st26" d="M802.5-45.1c-10.4.4-21-.6-31.4,0-8.5.5-20.9,3.5-29,3.5-2,0-3.7,0-5-1.8-20.1-38-40.5-75.6-62.3-112.7-14.1-24-30.4-54-45.8-76.5-4.1-6-11-11.8-15-18.1,4.7-.3,9.1,1.4,13.6,2.5,20.6,5.3,66.6,17.5,84.2,26.2,13,6.4,30.5,39.8,38.4,53.3,21.9,37.2,38.7,77.1,51.6,118.3.5,1.7,1.1,3.3.8,5.2Z"/>
      <path class="st40" d="M1048.9,2.5c5.2,1.1,10,.9,14.3,1.9,15.4,3.5,30,10.2,44.3,16.8,6.5,1.2-.8-9.2-2.5-10.2h3.4s-1.7-3.4-1.7-3.4c5.5,3.9,4.4.6,8.5,8.5-6.1-4.6-1.9,3.4-3.8,6.5s-3.4,1.5-4.7,2.8c-31.4,32.3-77.9,61.8-117.2,84.2-37.7,11.3-75.5,31.1-113.8,39.9-27,6.2-57.4,6.6-84.9,11l16.2,1.8c9.8-2.3,19.8-1.2,29.6-1.8-7,1.6-17.5,3-24.6,3.4-9.9.5-19.9,0-29.7,0-14.7.2-29.5-.1-44.2,0,8.6-11,21.8-8.4,33-10.3,101.9-17.7,191.2-61.4,261.8-137.4,5.1-5.5,6.4-15.4,16.1-13.7Z"/>
      <path class="st39" d="M1106.6,7.6l1.7,3.4h-3.4c-3.6-2.2-25.2-10-30.2-11.4-87.5-24.2-211.2-27.9-301.9-22.6-115.3,6.8-229.8,44.8-337.2,84.9-36.8,13.7-84.8,30.9-118.9,49.3l-1.7-.8,1.7-2.6C426.1,41.3,577.1-18.8,704.9-33.2c80-9,166.4-9.9,246.3-1.7,45,4.6,118.7,15.9,155.4,42.5Z"/>
      <path class="st20" d="M165.5,924.9c-3.2-1.2-11.4,2.3-11.9,1.7,1.5-10.3,4.8-18.1-8.5-20.4-28.8-58.8-52.5-116.2-74.7-178.4-.3-5.7.9-3.4,3.1-.6,14,17.6,27.9,35.3,44.4,50.7,15.3,14.2,33,25.8,48,40.3,2.2,35.4,6.2,71.5-.5,106.6Z"/>
      <path class="st8" d="M92.5,486.6c.6.5,1.1,1.2,1.7,1.7-5.3,22.7,2.7,51.1-2.9,72.7-4.3,16.9-24.2,22.1-38,11.4-12.5-9.8-11-17.4-13.9-30.2-1.9-8.3-6.2-16.1-4.7-25-31.8.6-31.6-42.3,0-42.5,3.3,3,7.2,4.8,10.2,7.6,14.4,13.4,5.3,12.6,5.1,29.7,4.2-1.8,13.2-16.2,13.6-19.7s-3.8-6.1-6.9-9.2c-3.4-9.7-12.6-17.3-9.9-28.6,14.7-7,27,16.3,36.3,25.2,2.4,2.3,6.5,4.7,9.3,6.8Z"/>
      <path class="st26" d="M259-223.4c-53.3,52.9-97.1,100.8-141.7,161.5S29.8,65,4.6,151.6C-30.8,273.6-26.8,421-.5,544.9c4.1,19.4,16.6,50.6,23.4,70.9-20-36.4-33.5-75.2-38.9-116.6-15.3-119.2-20.3-216.3,12.2-334C8.8,119.4,21.7,70.4,45.2,29.2c44.9-78.8,126.7-174.7,193.3-236.5,5.7-5.3,13.6-12.3,20.4-16.1Z"/>
      <path class="st11" d="M107.8,233.5c1.1,4.9-.7,4.1-3.1,6.2-8,6.6-16.9,15.1-24.9,21-3.3,2.4-6.5,5.7-11,5.1-14.7-52.2-13.8-106.9-4.6-160,3.3-19.4,8.1-37.9,16.5-55.7,2.5-2.4,3.1.1,3.4,2.5,1.8,14-3.6,29.8-1.8,44.3,2.6,40,5.9,80.1,18.8,118,1.8,5.4,4.7,13.4,6.8,18.7Z"/>
      <path class="st20" d="M715.9,840c-20.2,26.8-36.4,32.8-58.6,52.7-6.7,6-11.8,14.7-19.7,21.1-17.7,14.3-74.4,49.8-94.9,56.3-1.8.5-3.3,1.1-5.1.8-4-4,23.7-37.7,28-42.5,18.7-20.5,45.8-38.5,70.5-50.9,12.1-6.1,25.8-10.3,37.4-16.1,13.1-6.5,25.8-16.3,38.4-22.7,3-1.5,4.4-4.1,4,1.4Z"/>
      <path class="st1" d="M809.3,872.3c-.9,12.9-6.8,14.4-12.6,23.9-1,1.6-7.7,12.2-2.6,11,9.3-2.2,6.9.9,10.1,5.9-9.4-10.7-17.8,1.2-27.7,5.4-13.4,5.7-23.2,6.3-36.8,15l2.5-5.1c-42.6,20.6-78.5,67.7-102.5,108.2-1.4,2.3-12.2,18.3-3.7,17.5-4.9,6.7-8.7,10.1-13.2,18.3s-2.5,3.7-2.1-.4c2.8-26.8,34.9-89.6,52.6-110.5,15.3-18,41.7-38.2,62-50.1,24-14.1,52.9-20.3,73.9-39Z"/>
      <path class="st39" d="M1115.1,16.1c6.1,11.7,2.6,16.5-4,27.4-24.3,39.9-110.3,75.7-154,89.8-14.6,4.7-29.5,9.1-44.2,13.6-4,1.2-8,2.2-11.9,3.4l-3.4-2.6c32.6-10.2,62.1-21.3,91.7-38.2,39.3-22.4,85.8-51.9,117.2-84.2,1.3-1.3,4.3-2.1,4.7-2.8,1.8-3-2.4-11.1,3.8-6.5Z"/>
      <path class="st20" d="M194.4,1055.7c-.2-.9-2.1-2.7-2.6-4.9-3.6-15.2-15.6-82.8-10.2-93.6l19.6-8.5c0,27.2,3.4,56.4,8.5,83.2-3.5-3-3.7-.4-5.5,2.1-4.7,6.4-7.4,14.1-9.8,21.6Z"/>
      <path class="st4" d="M574.9,226.7c2.5,6.1-6.6,25.2,3.9,23.5,2.3-.4,26.7-18.9,32.4-22.1,16.7-9.7,42.2-22.6,60-30.1,4.7-2,38.2-13.7,39.7-12.1l-3.4,54.4c0-14-.1-29.5-1.7-43.4-.3-2.3.9-3.1-2.3-2.3l-37.9,14.8-95.6,54.7v-3.4s-5.1,1.7-5.1,1.7c10-15.6,4.4-19.9,10.2-35.7Z"/>
      <path class="st28" d="M457.7-291.4c.4,3-3.9,1.6-5.9,1.7-37.6,1.5-74.3.3-111.3,8.5,13-15.4,33.2-22.4,53.4-20.2,3.6.4,6.8,2.7,10.5,3.1,17.8,2.1,35.7,3.5,53.3,7Z"/>
      <path class="st22" d="M989.4,109.5c-29.7,16.9-59.2,28-91.7,38.2l3.4,2.6c-23.7,7.2-39.9,8.7-64.6,10.2-9.9.6-19.8-.5-29.6,1.8l-16.2-1.8c27.5-4.4,57.9-4.8,84.9-11,38.3-8.8,76.1-28.6,113.8-39.9Z"/>
      <path class="st16" d="M182.5,203l1.7,1.7c-8.2,6.3-14.6,15.4-22.1,22.1-5,4.5-15.9,9.9-18.2,12.4-8.9,9.6-18,20.4-27.7,30.1s-15.3,17-23.8,24.7l-25.5,19.5c-.7-3.2,1.8-4,3.4-5.9,29.5-35.3,74.9-78.2,112.1-104.5Z"/>
      <path class="st9" d="M196.1,940.2c-8.8,4.6-17.5,10.1-27.7,11.7-3.7-.9-12.3-20.4-14.8-25.3.5.6,8.7-2.9,11.9-1.7,2.1.8,7.8,13.7,13.6,13.6-1.3-28.7,29.8-27.9,17,1.7Z"/>
      <path class="st30" d="M435.6,62c-49.2,23.5-100,43.8-146.1,73,4.3-3.6,8.2-8.2,13.6-11-.4-1.7-3.5-.6-5.1-.8,6-3.3,13-8.8,18.7-11.9,34.1-18.4,82.1-35.5,118.9-49.3Z"/>
      <path class="st17" d="M298,123.1c1.6.2,4.7-.9,5.1.8-5.4,2.9-9.3,7.5-13.6,11-21.8,18.1-49.1,35.4-73,51-9.9,6.4-22.4,11.1-32.3,18.7l-1.7-1.7c2.9-2.1,5.8-5.7,10.2-8.5,31.3-19.8,64.3-38.6,93.3-62.1,2.3-1.9,6.5-3.9,3.6-7.5,1.3-1.8,3.5-2.3,5.1-3.4.5,1.7,2,1.5,3.4,1.7Z"/>
      <path class="st30" d="M289.5,124.8c3,3.6-1.3,5.6-3.6,7.5-29,23.6-62,42.4-93.3,62.1l92.6-68,4.3-1.6Z"/>
      <path class="st30" d="M216.5,186c-15.3,15.6-34.3,27-51,40.8h-3.4c7.5-6.7,13.9-15.8,22.1-22.1,9.9-7.6,22.4-12.3,32.3-18.7Z"/>
      <path class="st32" d="M165.5,226.7c-14.6,12.1-28.5,25.4-42.4,38.3-2.1,1.9-3.5,4.3-6.8,4.2,9.7-9.6,18.8-20.5,27.7-30.1,2.3-2.5,13.2-7.9,18.2-12.4h3.4Z"/>
      <path class="st43" d="M316.7,107.8l-1.7,2.6,1.7.8c-5.7,3.1-12.7,8.6-18.7,11.9-1.4-.2-2.9,0-3.4-1.7,7.4-4.9,14.7-9.1,22.1-13.6Z"/>
      <path class="st9" d="M153.6,926.6c-3.2-6.4-5.4-14.1-8.5-20.4,13.3,2.2,10,10.1,8.5,20.4Z"/>
      <path class="st22" d="M957.1,133.3c-12.9,7.8-29.4,11.2-44.2,13.6,14.6-4.4,29.6-8.9,44.2-13.6Z"/>
      <path class="st2" d="M739.7,941.9c3.2-2.9,6-9.4,11-10.2,3.6-.6,4.3,6.9,4,9-1.3,9.4-32.1,33.8-41,38.9-8.2,4.6-17.2,6.6-24.8,10.9-8.1,4.5-13.1,12.5-20.5,17.7.3-.4.3-2.5,1.6-4.2,17.9-22.8,55.9-35.9,76.6-57.7,3.6-3.9,5.7-7.2,5-12.8l-11.9,8.5Z"/>
      <path class="st36" d="M719.3,950.4c-3.4,3.4-7.7,8.2-11,11.9s-4.8,3.7.8,3.4c-3.2,2.4-8.5,9.6-13.6,7.7,7.3-7.6,13.6-18.8,23.8-22.9Z"/>
      <path class="st20" d="M73.8,918.1c12.4,1.4,31.9,12,42.5,18.7,22.7,14.3,43.5,33.8,42.5,62.9l-8.6-.8-11.8-26.4,4.2,28.9c-5.1-7-8.5-25.2-20-21.8-11.8,3.5,5.8,26.1,8.1,33.7,3,9.8,2.7,20.7,5.9,30.6l-12.9-21.9c-16.9-24.5-46.2-35.7-66.9-56.2,2.2-10.4,1.4-5.5,6.8-11.9l28.9-3.4c-6.3-6.1-17-10.7-25.5-13.6-2.2-.8-4.2-2.1-6.8-1.7-.3-1.8-2.8-4-2.9-6.2-.8-9.8,8.7-11.7,16.5-10.8Z"/>
      <path class="st20" d="M85.2,1001.6c10-.5,44.5,31.6,32.9,39.8-9.2,6.6-16.7-12.8-19.7-12.8-.9,0-3.2,4.9-6.7,5-8.2.2-13.1-10.1-4.3-14.4l-8.5-10.2,6.4-7.4Z"/>
      <path class="st4" d="M342.2,947c-5-.9-3.7,2.3-3,5.5,2.4,12.3,20.2,35.5,32.2,39.2,4.9,1.5,11.3,3.3,6.5-3.9.8.4,2.4,0,3.4.8,3.8,5.5,2.2,8.7-4.2,9.5-22.3,2.7-34.9-3.8-43.7-24.4-6.5-15.2-5.8-16.7,3.7-30,3.5-.8,3.6,1.6,5.1,3.4Z"/>
      <path class="st31" d="M-11.1-121.5c-12,30.2-22.7,60.6-28.7,92.8-.3,4.7.3,3.6,2,.3,9.2-18,16.1-37.2,27.6-53.9-.6,11.2-5.6,24.1-9.3,34.9C-34.8-3.3-52.4,40.3-68.9,84c-3.2,0-1.7-7.2-1.5-9.2.8-6.4,3.6-12.6,4.9-18.9-5,.1-4.8,8.5-6.5,12.2-19.6,44.4-53.6,104.1-51.4,152.6,1.9,39.6,15.5,82.6,23.9,121.4l3.4-21.2c-1.4-13.3,1.2-27.1,1.7-39.9h6.8c1.7,20.5,3.7,41.3,7.2,61.6,10.3,59.9,33.2,120.9,52.7,178.3,4.1,12.2,7.3,27.2,11.4,38.7l-5.1,4.3c-4.3-8.7-8.1-17.8-12.7-26.4-14.5-27.4-30.3-60.3-46.5-86-1-1.5-7.9-13.7-10.5-10.7,1.2,10-2.8,20.1-3.4,29.7-4.9,74.4-5.2,141.8,8.9,215.3,3.6,18.5,12.1,36.6,11.5,55.6-70.3-91.6-122.8-151.4-152.4-268-12.7-50.1-13.7-76-3.4-126.4,24-116.9,61.4-225.4,118.3-330.1C-86.3-29.3-40.3-76.8-11.1-121.5Z"/>
      <path class="st9" d="M498.5,1096.5c1.8-4.2,3.8-12.3,6-15.2,3.3-4.3,23.7-15.9,27.9-12,0,5.5-3.2,10.3-5.1,15.3,1.7-5.7-10.6-3.6-12.4-3-4.6,1.4-11.1,12.7-16.5,14.9Z"/>
      <path class="st7" d="M372.8,344c-24.1,16.1-11.7,61.3,20.4,58.6-13.4,9.4-33,21.8-49.3,24.6-17.7,3.1-54.1,3-69.7-5.9-23-13.2-19-39.6-.8-55.2,23.4-20,60.5-24.2,90-23.8,2.9,0,7.5-1.1,9.3,1.7Z"/>
      <g>
        <path class="st0" d="M453.4,136.7c7.1-4.3,10.7-13.2,18.2-15.8,12.9-4.6,98.8-17.4,108.9-14.4,2.7.8,5,5.1,8.5,6.8,3.3,1.7,37,13.5,36.9,9,.1-2.3-13.8-16-5.9-14.5,2.1.4,19.5,13.1,19.5,6l-3.4-4.2c18.4,2.7,46.2,4.1,61.2,15.3,1.4,1,4.2,1.6,4.6,2.1,1.1,1.6.3,4.6,1.3,6.4,3.1,5.8,6.3,10,7.7,17-1.5-10.9-.8-22.2-1.7-33.1-.7-8.6-3.6-40.2-7.5-45.1-1.4-1.8-3.4-3.8-6-3.3-2.7,2.9,14.6,23.4-1.7,20.4l-34-27.2,1.7,27.2c-10.9,2-10.9-11.1-18.7-15.3-1.6,5.5,0,30.9-4.5,32.2-7.8,2.3-78.4-27.8-88.1-37.2-4.4.3-5,26.2-11.9,28.5-4.2.6-21.6-30.3-26.3-26.8l-14.7,18.5-8.3-10c-5.3,3.7-13.3,17.4-20.2,15.1-6-2,.7-13.2-5.3-13.5l-51.8,56c6.4-4.5,28.7-10.2,36.5-10.3,6.4,0-1.3,10.3,5.1,10.2Z"/>
        <path class="st0" d="M56.8,483.3c-3.4-9.7-12.6-17.3-9.9-28.6,14.7-7,27,16.3,36.3,25.2,2.4,2.3,6.5,4.7,9.3,6.8-10.7-32.2-35-51-61.2-69.6-1.5-1.1-3-4.4-6.2-6.5-2.9-1.9-21.8-12.4-23.3-12-12.5,12.4-12.9,17.1-11.2,33.8,3.8,6.7,11.1,6.5,17,10.2,14.7,9.1,37.1,28.2,49.3,40.8Z"/>
      </g>
      <path class="st7" d="M651.4,274.3c-12.3,12.4-10.7,36.2,4.2,45.9l14.4,6.8c-10.8,7.7-14.1,9.7-27.2,11.9-2.9.5-5.4,1.5-8.5,1.7-21.1,1.4-75.5-4.2-48.5-35.7,9.1-10.6,31.9-21.6,45.1-26.2,5.3-1.9,14.7-5,20.3-4.3Z"/>
      <path class="st8" d="M282.7,340.6c-11.9,7.3-23.1,11.7-32.3,22.9s-10.1,10.8,0,9.4c-7.1,9-10.8,18.9-7.7,30.6,4,15,14.1,16.5,26.4,20.3l-10.2.8c39.4,24.6,87,14.6,125.7-5.9-13.5,9.9-24.3,17.3-40.3,23.4-33.7,12.7-108,9-112.5-37.8-3.4-35.5,20.8-54.4,50.9-63.7Z"/>
      <path class="st4" d="M479.8,262.4c-6.4,7.6-23.4,8.5-33.3,10-75.4,10.8-152,12.8-227,22.7-6.7.9-16.5,7.2-23.3.5,4.7-7.1,10.9-14.3,18.6-17.8-.3.3-4.3,6.2-4.4,6.6-.7,2.3-.9,4.6-.7,7,2.7,2.8,65.5-10.8,75.6-11.9s14.9.6,22,0c57.5-5,115.3-8.7,172.4-17Z"/>
      <path class="st17" d="M619.1,277.7c8.4-2.9,21.3-6.7,29.9-8.3,2.9-.5,7.9-2,4.1,3.2-.4.3-1.2,1.2-1.7,1.7-5.6-.7-15,2.4-20.3,4.3-13.2,4.6-36,15.6-45.1,26.2-27,31.6,27.4,37.1,48.5,35.7-13.1,4.1-27.6,5-40.7.8-3.6-1.2-6.7-3.7-10.2-5.1-5-1.9-12.8.5-15-7.1-2.7-9.4.7-20.2,6.4-27.7,7.7-9.9,32.1-19.7,44.2-23.8Z"/>
      <path class="st0" d="M755,416.2c-1.5-16.9-6.8-37.5-11.9-53.5,3.9,20.9,5,26.9-3.1,47-7,17.5-17.3,35.5-24.9,53.3-7.7,17.8-13.5,36.4-21.5,54-17.9.2-35,5.1-52.3,8-2.6.4-6.9,2.3-8.5-.9-13.1,14.3-24.6,21.6-42.5,28.9-19.6,7.9-22.6,3.7-39.5,7.2-5.1,1-9.1,6.1-13,7.3-13,3.9-40.5-4.1-51-12.8,5.5-4.9,13.6-3.1,20.4-3.4,0-1.7,0-3.4,0-5.1.2-8.5-1.8-26,8.5-28.9-5.4,31-.1,35.5,30.6,32.3,2.4-.3,5.9-2.9,9.5-3.2,33.5-3.3,47.9,1.1,71.2-27.3,8.1-9.8,11.3-12.4,7.6-25.5v11.9c-14.1-1.4-27.7,5.4-39.6,12.2-10.5,6-16.5,16.4-30.5,12.8-10.6-2.7-17-24.8-36.3-26.7-9.9-1-9.4,3.5-15.3,6.5-9.1,4.5-33.6,14.7-35.9,25.3-1.8,7.8,1.6,10.5,6.5,15.8-1,3.5-4.3,3.2-7.1,4-16.4,4.6-34.1,7.6-50.3,12.6-15.1,4.6-36.7,16.2-51.4,18.4-5.9.9-9.1-.8-17,.7-2.8.5-5.8.7-8.5,1.7-23-20.7-49-42.3-76.7-56.7-38.9-20.3-87.5-20.9-122.1-50.3.2-2.6-.7-2.2-1.7-3.4-3.8-22.3-15.4-42.7-21.3-64.5-5.8-21.5-18.7-86.1-13.6-105.4,4.1-15.6,36-46.8,48.4-58.6,48.7-46,115.3-78.2,180-95.2,4.2-1.1,8.7-.1,12.5-1.1,7.2-1.9,16.4-7.8,24.4-9.6,5.7-1.3,0,12.7.8,15.7l3.9,2.6c5-.4,20.6-17.8,24.9-21.9-11.6,1.2-3.9-14.4-3.4-21.3.5-7-.3-14.2,0-21.2-25.8,12.2-50.3,26.8-74.3,42l-7.2.4c-1.5-1.4,2.8-16.8-2.5-15.2-59,38.5-117.2,79-170.8,124.8-9,7.7-46.8,40.2-51,47.5-6.1,10.5-3.5,55.9-1.2,69.3,5.4,31.3,25.7,56,31.8,84.5-7.3,13-12.3,29.7-24.6,39.1-2.3,1.8-5.5,1.3-6,1.6-1.7-1.2-3.5-2.2-5.1-3.4-5.3,22.7,2.7,51.1-2.9,72.7-4.3,16.9-24.2,22.1-38,11.4-12.5-9.8-11-17.4-13.9-30.2-1.9-8.3-6.2-16.1-4.7-25-31.8.6-31.6-42.3,0-42.5-2.4-2.2-4.5-5.8-7.7-8.4-10.2-8.5-21.8-15.6-32.2-23.8-1.6.9-.9,5-.8,6.8,2,32.6,11.6,68.4,15.2,101.2,3.1,10.1,21.1,13.9,25.7,20.2,4.5,6.2,4.1,15.2,12.6,23.1,3.4,3.2,7.2,4.1,10.3,6.7,9.7,8.1,13.7,19.2,29.3,10.6,2.8-1.5,13.5-20.9,15.5-25.3,1.5-3.4,6.7-16.4,7-19.3,2.2-1.3,4.8-4.2,5.1.8.8,12.2,1.1,21.1,4.2,33.2,10.9,42.9,59.9,92.1,91.8,122.3,25.9,24.5,57.4,47.1,89.2,62.8,34.2,25.5,112.9,48.8,155.4,51,38,2,149.5-9.1,176.8-35.7,9.7-9.4,25.1-34.4,33.1-46.8,60.4-92.9,100.2-226.9,90-338.1ZM297.4,654.7c-.3,0-.5-.2-.7-.4.2.2.5.3.7.4.6.2,1.1.3,1.7.3-.6,0-1.2-.1-1.7-.3ZM299.7,651.4c-4.7,1.4-3.8-3.6-3.4-6.8,4.2-32,17.9-43.5,47.6-52.7h0c4.2-1.3,11.4-1.5,16.1-3.4,1.7.1,1.1,2.2,0,3.5-4.9,5.8-32.2,12.6-40.8,18.6-11,7.8-14.2,29-19.5,40.8ZM617.4,675.2c-7.2,10.7-11.4,27.7-25.5,31.5-12,3.3-8.2-10.2-18.7-7.8-.9-3.9,3.1-4.9,5.1-6.8,6.8-6.4,15.5-10.9,23.8-15.3,6-3.2,13.3-9.8,20.4-7.7-2.1,1.7-3.6,3.7-5.1,6ZM666.7,585.2c2,2.6.6,6.4,6.8,5.1,6,6-23,25.1-27.3,27.9-57.4,37.1-170.5,71.4-238.5,77.4-8.4.7-32.2,3.3-38.7,1.4-2.4-.7-11.1-10.1-12.8-12.7-11.5-17.5-9.8-48.6,5.6-63.5,5.9-5.7,19.1-7.9,27.2-8.5,71.4-5.5,159.3,6.1,226.8-21.2,16.1-6.5,33-19.8,49.3-24.6,3.1-.9,5.7-3,10.2-1.7.2,8.1-4.1,13.5-11.9,15.3-1.3,4,2.1,3.4,3.4,5.1Z"/>
      <path class="st19" d="M690.4,277.7c1,3.7,8.1,7.6,5.1,15.3-7.6,16.2-27.7,5.4-22.1-11.9,4.8-3.7,9.5-6.5,15.8-4.8l1.1,1.4Z"/>
      <path class="st3" d="M423.7,369.4c-1.5-8.3-2.4-14.9-10.2-18.7-.2-1.3-.2-3.8,0-5.1,3.9-24.6,21.1,15.9,10.2,23.8Z"/>
      <path class="st5" d="M639.5,515.5c4.6-12.8,4.6-21.9-1.7-34,3.4,4.6,6,5.3,6.8,12.7,1,9.1-.3,14.2-5.1,21.3Z"/>
      <path class="st0" d="M547.7,552.9c13-5.7,9.6-1,19.7-.1,7.6.6,15.2-.1,22.8.1-19.6,7.9-22.6,3.7-39.5,7.2-5.1,1-9.1,6.1-13,7.3-13,3.9-40.5-4.1-51-12.8,5.5-4.9,13.6-3.1,20.4-3.4,0-1.7,0-3.4,0-5.1,8.1,12.5,24.6,14.3,37.9,9.8,2.3-.8,2.7-2.9,2.9-3Z"/>
      <path class="st38" d="M617.4,675.2c-7.2,10.7-11.4,27.7-25.5,31.5-12,3.3-8.2-10.2-18.7-7.8-.9-3.9,3.1-4.9,5.1-6.8.1,9.6,13-2.3,13.6-1.7,0,3.1.7,7.5,5.1,6.8,1.4-5.1,4.4-15.5,8.5-18.7,2.7-2,8.4-3.1,11.9-3.4Z"/>
      <path class="st46" d="M665,566.5c3.1-.9,5.7-3,10.2-1.7.2,8.1-4.1,13.5-11.9,15.3-1.3,4,2.1,3.4,3.4,5.1-13.6.4,0-13.2,4.3-17l-6-1.7Z"/>
      <path class="st13" d="M602.1,676.9c6-3.2,13.3-9.8,20.4-7.7-2.1,1.7-3.6,3.7-5.1,6-3.5.3-9.2,1.4-11.9,3.4l-3.4-1.7Z"/>
      <path class="st25" d="M-87.6,281.1h-6.8c.8-22.6-2-45.7,2.5-68,1.9,22.6,2.3,45.4,4.2,68Z"/>
      <path class="st29" d="M67,936.8c8.4,2.9,19.2,7.5,25.5,13.6l-28.9,3.4c4.7-5.6,7.5-9.5,3.4-17Z"/>
      <path class="st18" d="M413.5,350.8c.5,3.5,3.1,6.4,3.2,9.3.2,6.7-5.8,12.9-12.6,12.9-19.5,0-15.8-34.2,9.3-22.2Z"/>
      <path class="st10" d="M430.5,685.4c-13.7-2.7-22.7-.4-35.7,3.4-1.8-1.8-13.2-28.3-10.2-31.5,38-5.2,105.6-4.4,142.1-14.2,2.1-.6,7.4-.9,7.4-3.6-23.5,3.8-52.6,12.5-76.1,13.8-20.1,1.1-54.3,2.4-74-1.3-3.1-.6,7.1-12.3,2.4-10.8l.2-13.4c2.2-3.5,36.5-1.6,43.2-1.9,58.3-2.6,134.3-3.8,189.3-23,5.6-1.9,11.9-8,17-6.8l-3.4,7.6c5.2,1.4,7.1-1.7,10.2-3.4,6-3.2,11.4-7.5,17.8-10.2,6,4.7.2,8.4-3.5,11.8-40.2,37.9-171.3,74.5-226.7,83.3Z"/>
      <path class="st40" d="M398.3,642.9h-13.6c1-4.9-2.5-22,2.8-23.6l115.3-1.8c51.8-4.7,105-7.8,149.4-37.4,2.8,10.1-11.2,13.2-16.1,19.5l6.8.8c-3.1,1.7-5,4.8-10.2,3.4l3.4-7.6c-5.1-1.2-11.4,4.9-17,6.8-55,19.2-131,20.4-189.3,23-6.6.3-41-1.6-43.2,1.9l-.2,13.4c4.8-1.5,8.8,1.1,11.9,1.7Z"/>
      <path class="st23" d="M386.4,659.9c-1.6,6-4.6,10.5-6,16.9-.9,4,0,11.6-1.5,13.8-6.7,9.9-26.3-21.3-23-29,10,3.1,20.2-2.5,30.6-1.7Z"/>
      <path class="st42" d="M407.3,654c-3,3.2-14.3,33-12.5,34.8,13-3.8,21.9-6.1,35.7-3.4-.3,0-1.2,1.4-2.7,1.6-6.2.9-38.7,4.6-41.4,1.7-.4-8.5-1.3-31.6,8.2-34.1,3.1-.8,9.9-.3,12.7-.7Z"/>
    </g>
  </g>
  <g id="Layer_2">
    <path class="st12" d="M393.2-342.3c82.6,21.1,166,39.7,248.4,61.6,18.5,4.9,84.8,20.9,96.3,29.4,11.9,8.7,13.7,26.9,20.2,39.3,13.3,25.1,31.6,48.2,43.1,75.8,6.1,14.6,24,87.2,34.8,90.9,74.6.5,153,2.7,224.4,25.3,19.6,6.2,68.5,21.6,64.3,48-6.9,43.2-102.3,88.7-139.9,103.2-30.9,11.9-63.8,21.2-95.8,29.9-4.1,1.1-11.8.1-13.1,3.9,2.2,16.3,1.1,32.6,1.5,49,3.5,129.4-25.8,260.1-52.1,386.2-13.9,66.3-28.6,151.3-19,218.4,4.2,29.5,22.1,54.7-3.5,81.5,12.2,13,17.1,29.4,14.2,47l176.4,92.1c22.7,16.7,48.7,33.8,69.2,53.2,3.4,3.2,6.9,6.4,8.5,11.1-.3,0-1.7,2.6-5,1-7.8-4-29.3-26.1-38.4-33.2-68.4-53.1-156.6-83.8-231-127.4l-2.5-5.1,15.2,3.3c4.4-11.4,1.2-19.3-5-28.8-3.2-4.9-.8-8.1-10.1-5.9s1.6-9.4,2.6-11c5.8-9.6,11.7-11.1,12.6-23.9,1.2-16.8-5.3-30-8-45.5-11.8-67.7,3.1-157.7,17.1-224.9,14.5-69.8,30-137,40-208,9.8-69.7,16.7-135.1,12.2-205.3-1.2-18.4,7.1-27.6-17.6-22.7l-2.6,2.4c2.4,9.5,5.2,19.2,6.4,29,1.7,14.2.5,28.4.2,42.3-2.9,142.1-35.3,281.1-56.8,420.5-11.3,73.1-57.2,173.9-114.7,221.6-9.9,8.2-19.4,12.1-28.9,22.1-28.7,29.9-69,51.2-106.4,70.3-10.1,5.2-18.2,6.5-27.8,13.8-16.9,6.5-34.1,15-49.8,24.1-38.1,22.2-76.8,49.6-109.1,79.5-6.4,5.9-12.5,12.4-16.1,20.4h-8.5c2.5-6.3,7.4-13.8,11.9-18.7,28.8-31.3,78.7-63.3,115-86.3,9.1-5.7,23.4-11,31.1-17.3,6.4-2.1,22.9-8.3,27.2-12.7s9.1-17.3,12.8-22.9c10.9-16.3,24.5-32.6,38.9-46s10.5-6.3,12.6-9.5c3.4-5.2,12.1-53.9,13.3-63.1.5-3.5.7-7,.5-10.6-26.1,6-54,13.8-80.7,17-121.8,14.5-210.8-31.6-303.2-102.8-1.7-1.3-2.2-3.3-5.1-2.5,6.5,33.8,8.3,68.3,6.9,102.8-1.9,45.6-14.4,94.6-10.2,139.2,4.3,45.5,17.1,90,30.6,133.4h-8.5c-8.4-26.2-17-52.7-22.1-79.8-5.1-26.8-8.4-56-8.5-83.2l-19.6,8.5c-5.4,10.8,6.5,78.4,10.2,93.6.5,2.3,2.4,4,2.6,4.9,4.9,19.1,9.8,37.7,17,56.1h-8.5c-13.7-38-25.7-80.9-28.9-121.5-.7-8.6,1.1-19,0-27.2s-9.4,1.1-11.7,3.6c18.1,48,.3,96.9-7,145.1h-6.8c3.5-42,27.5-107.6,4.7-146.5-3-5.2-11.3-10.2-12.8-14.4-1.1-2.9-1.7-6.6,3.1-5.6,4,4.4,10.8,6.6,14.4,11.9,1.7-.2.8-2.6.5-3.9-4.4-15.9-22.2-45-30-61.8-35.7-77.4-65.9-159.4-93.7-240.1-4.1-11.8-8-23.8-11.9-35.7-6.7-20.3-19.3-51.5-23.4-70.9-26.3-123.9-30.3-271.2,5.2-393.2C29.8,65,64.5,9.6,117.2-61.9s88.5-108.6,141.7-161.5c20.3-20.2,36-36.3,59.6-53.4,29.7-21.5,41.4-32,80.5-29.9,69.1,3.8,162.4,30.8,229.8,50.5,24.2,7.1,65.6,18.1,87.1,28.5,19.8,9.6,28.8,35.9,39.3,54.1,8.3,14.4,18.7,28.4,25.5,44.1,11.4,26.4,18.2,56.3,30.5,82.5l15,.2c-2.9-7.3-7.4-13.7-10.3-21.2-7.9-20.6-11.4-44.2-20-64.9-11.4-27.6-30.7-51.8-43.7-76.9-12.5-24.3-3.9-33.1-34.8-43.4-78.5-26.2-172.2-46.7-253.4-66-26.7-6.3-61.7-16.8-88-19.8v-3.4h17ZM457.7-291.4c-17.6-3.5-35.5-4.9-53.3-7s-6.8-2.7-10.5-3.1c-20.1-2.2-40.3,4.8-53.4,20.2,37-8.1,73.7-7,111.3-8.5,2.1,0,6.3,1.3,5.9-1.7ZM107.8,233.5c-2.1-5.3-5-13.3-6.8-18.7-1.9-16.6-7.2-32.3-9.9-48.7-7-42.4-7.8-96.3-3.7-139,1.3-13.9,6.3-27.6,5.9-41.6-15.3,24.4-40.9,51.4-50.5,78.6C6.9,166.5-19.1,253.9-14.6,365.3c.5,11.5,2.3,24.9,3.5,36.5,29.4-29.6,50.7-66.7,77.3-98.5,58-69.6,145.1-133.8,220.5-183.8,26.2-17.4,53-33.1,81.1-47.2,110.5-50,209.4-96.1,332.1-110.4,9.7-1.1,19.9-1.6,29.7-1.7l-.7-5.2c-29.3-52.7-57.3-106.1-91-156.2-7.8-15.7-26.5-47.4-41.8-55.8-8.2-4.5-43.5-12.5-54.6-15-50.3-11.1-104.3-12.9-155.8-9-12.7,1-47.7,6.7-59,10.6-16.5,5.7-47.2,42.2-61.6,55.7-21.7,20.4-43.8,39.5-64.5,61.2-34.8,36.5-62.5,80.4-93.5,120.6-20.9,79.8-21,170,2.1,249.3.8,2.7,14.3,31,6.4,30.9-3.7-3.3-5.9-9.1-7.6-13.6ZM802.5-45.1c.3-1.9-.2-3.4-.8-5.2-12.9-41.2-29.7-81-51.6-118.3-8-13.5-25.5-46.9-38.4-53.3-17.6-8.7-63.5-21-84.2-26.2-4.5-1.1-8.9-2.8-13.6-2.5,4,6.3,10.9,12.1,15,18.1,15.4,22.5,31.7,52.5,45.8,76.5,21.8,37,42.3,74.6,62.3,112.7,1.3,1.7,3.1,1.8,5,1.8,8.1,0,20.4-3,29-3.5,10.4-.6,21,.4,31.4,0ZM316.7,107.8c-7.4,4.5-14.7,8.7-22.1,13.6s-3.8,1.6-5.1,3.4l-4.3,1.6-92.6,68c-4.4,2.8-7.3,6.4-10.2,8.5-37.3,26.3-82.6,69.2-112.1,104.5-1.6,1.9-4.1,2.8-3.4,5.9l25.5-19.5c8.5-7.6,15.7-16.6,23.8-24.7,3.3,0,4.7-2.3,6.8-4.2,14-12.9,27.8-26.1,42.4-38.3,16.7-13.8,35.7-25.2,51-40.8,23.9-15.6,51.2-32.8,73-51,46.1-29.2,96.9-49.6,146.1-73,107.4-40.1,221.9-78.1,337.2-84.9,90.7-5.3,214.4-1.6,301.9,22.6,5.1,1.4,26.6,9.2,30.2,11.4,1.7,1.1,9.1,11.4,2.5,10.2-14.3-6.6-28.9-13.4-44.3-16.8-4.3-1-9-.8-14.3-1.9-85.9-17.7-176.8-22.8-264.2-18.8-79.2,3.7-153,20.7-228.4,43.4-22.3,6.7-43.9,16.4-66.2,23-.4,3,3.8,1.6,5.7,1.5,41.4-3.8,83.8-14.7,125.9-18.5,16.3-1.4,36.5.2,52.5-1.9s30.7-15.4,21.4,5.2c2.3,0,4.7,0,6.8.8,10,4,45.6,40.2,53.5,50.1,3.3,4.1,6.9,7.9,5.9,13.6-3.7,3.7-45.8-22.3-47.5-20.4l5.1,83.2c17.9,1.3,35.6,1.9,53.5,1.7,2.9,0,7.6,1.1,9.3-1.7,9.9-.1,19.9.4,29.7,0,7.1-.3,17.6-1.7,24.6-3.4,24.7-1.5,40.9-3,64.6-10.2,3.9-1.2,7.9-2.2,11.9-3.4,14.8-2.4,31.3-5.8,44.2-13.6,43.7-14.1,129.7-49.9,154-89.8,6.6-10.9,10.1-15.6,4-27.4-4.1-7.9-3-4.5-8.5-8.5-36.7-26.6-110.5-37.9-155.4-42.5-79.9-8.2-166.3-7.3-246.3,1.7-127.7,14.4-278.8,74.4-388.2,141ZM693.8,89.1l-34-27.2,1.7,27.2c-10.9,2-10.9-11.1-18.7-15.3-1.6,5.5,0,30.9-4.5,32.2-7.8,2.3-78.4-27.8-88.1-37.2-4.4.3-5,26.2-11.9,28.5-4.2.6-21.6-30.3-26.3-26.8l-14.7,18.5-8.3-10c-5.3,3.7-13.3,17.4-20.2,15.1-6-2,.7-13.2-5.3-13.5l-51.8,56c-2,1.4-2.2,2.3-3.4,3.4-11.6,1.2-3.9-14.4-3.4-21.3.5-7-.3-14.2,0-21.2-25.8,12.2-50.3,26.8-74.3,42l-7.2.4c-1.5-1.4,2.8-16.8-2.5-15.2-59,38.5-117.2,79-170.8,124.8s-46.8,40.2-51,47.5c-6.1,10.5-3.5,55.9-1.2,69.3,5.4,31.3,25.7,56,31.8,84.5-7.3,13-12.3,29.7-24.6,39.1s-5.5,1.3-6,1.6c-1.7-1.2-3.5-2.2-5.1-3.4s-1.1-1.2-1.7-1.7c-10.7-32.2-35-51-61.2-69.6-1.5-1.1-3-4.4-6.2-6.5s-21.8-12.4-23.3-12c-12.5,12.4-12.9,17.1-11.2,33.8.5,5.5.8,12,3.4,17,2,32.6,11.6,68.4,15.2,101.2,3.1,10.1,21.1,13.9,25.7,20.2,4.5,6.2,4.1,15.2,12.6,23.1s7.2,4.1,10.3,6.7c9.7,8.1,13.7,19.2,29.3,10.6,2.8-1.5,13.5-20.9,15.5-25.3,1.5-3.4,6.7-16.4,7-19.3,2.2-1.3,4.8-4.2,5.1.8.8,12.2,1.1,21.1,4.2,33.2,10.9,42.9,59.9,92.1,91.8,122.3,25.9,24.5,57.4,47.1,89.2,62.8,34.2,25.5,112.9,48.8,155.4,51,38,2,149.5-9.1,176.8-35.7,9.7-9.4,25.1-34.4,33.1-46.8,60.4-92.9,100.2-226.9,90-338.1-1.5-16.9-6.8-37.5-11.9-53.5-2.2-12.1-4.9-20.9-9.4-32.2-7-17.7-28.5-50.5-28.1-67.2.2-7.3,1.8-14.6,1.8-22.9l3.4-54.4c-1.5-1.6-35.1,10.1-39.7,12.1-17.7,7.4-43.2,20.4-60,30.1-5.6,3.3-30.1,21.8-32.4,22.1-10.5,1.6-1.4-17.4-3.9-23.5,4-11.1,4-10.7,13.7-17.7,20.5-14.6,69.9-35,94.6-37.9,20-2.3,33.3,7.3,27.6-20.9-1.5-10.9-.8-22.2-1.7-33.1-.7-8.6-3.6-40.2-7.5-45.1-1.4-1.8-3.4-3.8-6-3.3-2.7,2.9,14.6,23.4-1.7,20.4ZM715.9,840c47.7-63.1,64.3-126.3,78.6-202.5,24.3-129.4,50.4-260.6,55.7-392.8,1-25.4.8-51.2-7-75.5l-122.1,3.2c4.2,5.6-.5,8-1.2,11.5-5.2,27.2-2.2,58.2-7.2,86,43.3,76.1,59,155.5,47.1,242.6-13.2,96-54.6,213-117.8,288.2-9,10.7-19,13.5-30.2,20.9l-13,67.6c10.7-3.6,20.7-12.2,31.8-14.9,3.2-.8,6.4-1.9,5.5,3-24.7,12.5-51.8,30.4-70.5,50.9-4.3,4.7-32,38.5-28,42.5,1.9.4,3.4-.2,5.1-.8,20.6-6.4,77.3-41.9,94.9-56.3,7.9-6.4,13-15.1,19.7-21.1,22.2-19.9,38.4-25.9,58.6-52.7ZM70.4,727.9c22.2,62.1,45.9,119.6,74.7,178.4,3.1,6.3,5.3,14,8.5,20.4,2.4,4.9,11.1,24.4,14.8,25.3,10.2-1.6,18.9-7.1,27.7-11.7.7-.4,3.6.8,4.8-.3.9-4.8,2.7-9.5,3.5-14.4,4.8-28.9,7.6-72,8.7-101.7.9-22.9-2.6-81.2-13.3-100.6-1.8-3.3-21-26.1-24-28.6-15.2-13-30.7-28-46-42.3-7.7-7.3-29.3-32.8-38.4-33.2s-6.9,3.5-13.4,3.6c-5.5,0-8.7-1-13.3-3.8-7.3-4.5-25.1-20.8-29.7-28-4.9-7.6-6.3-19.9-17.3-20.9-.6,3,.5,5.3,1.3,8,14.7,49.3,33.9,101.4,51.3,150Z"/>
    <path class="st12" d="M376.2-342.3v3.4c-28.7-3.4-72.4,4.7-98.3,18-44.6,22.9-98.3,57.5-141.1,84.9C85.4-203.1,33.1-162.7-11.1-121.5-40.3-76.8-86.3-29.3-111.4,16.9c-57,104.8-94.4,213.2-118.3,330.1-10.3,50.4-9.4,76.3,3.4,126.4,29.6,116.7,82.1,176.4,152.4,268,27.1,35.3,55.9,69.7,82.2,105.5,7.1,9.7,12.7,22.3,19.7,31.2,11.9,15,34.1,21.3,49.3,34.8.8,5-1.9,3.7-5.2,2.6-10.2-3.3-18.5-17.1-27.2-1.9-4.9,8.6,0,16.7,6.9,22.2l-2.7,4.2c-3.4,0-6.5-1.9-10-1.7-70.9,3.6-196.5,51.1-255.6,91.1-8,5.4-2.6,6.7-13.7,7.5,2.4-12.2,21.6-20.5,32.2-26.4,41-22.8,84.7-41.8,129.5-55.6,34.7-10.7,70.3-20.1,106.6-23.3-5.5-12.8-1.4-20.9,8.5-29.7-3.6-4.3-9-5.2-13.4-8.6-13.3-10.3-28.9-39.7-40.2-54.9-52.5-70-112.4-136.5-160.7-209.6-37-56-84.9-181.8-75.8-248.1C-226.8,258.4-175.1,122.6-117.9,13.8-94.9-29.7-49.5-71.8-25.4-116.3c92.2-90,206.4-155.5,318.4-218.4l28.8-7.7h54.4Z"/>
    <path class="st12" d="M7.5,442.5c14.7,9.1,37.1,28.2,49.3,40.8s7.3,4.9,6.9,9.2-9.4,17.9-13.6,19.7c.2-17.1,9.3-16.3-5.1-29.7-3.1-2.8-6.9-4.6-10.2-7.6-2.4-2.2-4.5-5.8-7.7-8.4-10.2-8.5-21.8-15.6-32.2-23.8-1.6.9-.9,5-.8,6.8-2.6-5-2.9-11.5-3.4-17,3.8,6.7,11.1,6.5,17,10.2Z"/>
    <path class="st12" d="M636.1,1054c-8.6.8,2.3-15.2,3.7-17.5,24-40.5,59.9-87.6,102.5-108.2l-2.5,5.1c-7.6,4.9-14,10.7-20.4,17-10.1,4.1-16.4,15.4-23.8,22.9,5.1,2,10.4-5.2,13.6-7.7,10.4-7.9,20.9-15,30.6-23.8l11.9-8.5c.7,5.6-1.4,8.9-5,12.8-20.6,21.8-58.7,34.9-76.6,57.7-1.3,1.7-1.3,3.8-1.6,4.2-11.4,14.9-21.2,30.8-32.3,45.9Z"/>
    <path class="st12" d="M67,936.8c4.1,7.5,1.3,11.4-3.4,17-5.4,6.4-4.6,1.5-6.8,11.9-2.5,11.7.6,12,1.3,21.7.7,11.3-4.6,6.5-7.7-.8-7.6-17.9-.9-29.1,11.4-42.3-4.1-4-1.4-8-1.5-9.1,2.6-.4,4.5.9,6.8,1.7Z"/>
    <path class="st12" d="M342.2,947c12.6,15.3,14.5,31.2,35.7,40.8,4.9,7.2-1.5,5.4-6.5,3.9-12-3.6-29.8-26.9-32.2-39.2-.6-3.2-2-6.4,3-5.5Z"/>
    <path class="st12" d="M214.8,277.7c6.3-6.8,26.2-14.3,35.7-17.8,69.8-24.9,148.7-27.4,222.2-29.5l10.2,26.4c.1,1.9-1.9,4.2-3.1,5.6-57.1,8.2-114.9,12-172.4,17-7.2.6-14.9-.7-22,0-10.1,1-72.9,14.6-75.6,11.9-.1-2.4,0-4.7.7-7s4.1-6.3,4.4-6.6Z"/>
    <path class="st12" d="M413.5,345.7c-.2,1.3-.2,3.8,0,5.1-25.1-12.1-28.8,22.2-9.3,22.2,6.8,0,12.8-6.2,12.6-12.9,0-2.9-2.7-5.8-3.2-9.3,7.8,3.8,8.7,10.4,10.2,18.7.7,4,2.2,5.4,1,10.2-3.2,12.7-29.3,31.2-40,39.1-38.7,20.5-86.3,30.5-125.7,5.9l10.2-.8c24,7.6,50.4,13.1,74.7,3.4,16.2-2.9,35.9-15.2,49.3-24.6-32,2.7-44.5-42.4-20.4-58.6s28.9-6.4,40.8,1.7Z"/>
    <path class="st12" d="M670,327c3.1-2.2,6.4-.2,5.1-6.8-20.9,3.1-35.6-19.5-24.6-37.3,1.4-2.2,12.4-12,14.3-12.7s9.9,1.9,13.7.7c.9,6.3-3.2,4.2-5.1,10.2-5.6,17.3,14.5,28.1,22.1,11.9,1.3-2.7,1.1-6.8,3.4-6.8,8.1,21.9-15.6,40.1-31.7,50.6-19.8,12.9-45.6,18.7-69.2,15.5-3.7-.5-21.1-7.8-23.7-9.9-2-1.6-.9-3.2-1.1-5.2,8.3-1.7,14,4.9,21.1,6.9,12.9,3.6,30.2,1.8,43.1-1.3,3-.7,6.4.9,5.4-3.9,13.1-2.2,16.4-4.2,27.2-11.9Z"/>
    <path class="st12" d="M282.7,340.6c35.6-10.9,92.5-18.6,128.3-8.5,2.7.8,5-1.8,4.2,3.4-12.1.5-24.4-.7-36.5,0-37.2,2.1-103.4,5.8-128.3,37.4-10.1,1.4-2.6-6.3,0-9.4,9.2-11.1,20.4-15.6,32.3-22.9Z"/>
    <path class="st12" d="M637.8,481.6c6.3,12,6.3,21.2,1.7,34-1.6,2.4-4.8,6.3-6.8,8.5-13.1,14.3-24.6,21.6-42.5,28.9-7.6-.3-15.2.5-22.8-.1-10.1-.8-6.7-5.6-19.7.1l-1.7-3.4c2.4-.3,5.9-2.9,9.5-3.2,33.5-3.3,47.9,1.1,71.2-27.3,8.1-9.8,11.3-12.4,7.6-25.5-.9-3.2-1.7-6.3-3.7-9l-25.1-36.8c6.6-5.9,28.4,28.6,32.3,34Z"/>
    <path class="st12" d="M574.9,301.5c-9-5.1,6.3-14.9,10.3-17.7,28.2-19.7,77.4-34.3,110.9-24.9l1,5.2h-33.1c-3.1,0-22.9,5.1-27.6,6.4-5.5,1.5-13,3.5-17.4,7.2-12.1,4.1-36.5,13.8-44.2,23.8Z"/>
    <path class="st12" d="M690.4,277.7l-1.1-1.4c-6.4-1.7-11,1.1-15.8,4.8,1.9-5.9,6-3.9,5.1-10.2-3.8,1.2-11-1.7-13.7-.7s-13,10.5-14.3,12.7c-11,17.8,3.7,40.4,24.6,37.3,1.3,6.6-2,4.5-5.1,6.8l-14.4-6.8c-15-9.7-16.5-33.5-4.2-45.9.5-.5,1.3-1.4,1.7-1.7,9.2-6.6,28.9-7.1,37.5.9,2.8,2.6-.2,3.9,0,4.2Z"/>
    <path class="st12" d="M569.8,264.1c-9.4,14.7-15.8,32.6-25.1,47.1-4.2,6.6-8.1,4-6.4-2.9s20.6-36.7,26.4-45.8l5.1-1.7v3.4Z"/>
    <path class="st12" d="M408.5,437.4c-1.5-1.5,16.5-19.8,18.4-23.2,4-7,4.6-17.2,10.4-22.7,5,20.4-10.7,38.5-28.8,45.9Z"/>
    <path class="st12" d="M571.5,396.6c-3.6,4.2-17.4-23.1-15.3-27.2,3.4-3.9,18.8,22.3,15.3,27.2Z"/>
    <path class="st12" d="M665,566.5l6,1.7c-4.2,3.8-17.9,17.4-4.3,17,2,2.6.6,6.4,6.8,5.1,6,6-23,25.1-27.3,27.9-57.4,37.1-170.5,71.4-238.5,77.4-8.4.7-32.2,3.3-38.7,1.4-2.4-.7-11.1-10.1-12.8-12.7-11.5-17.5-9.8-48.6,5.6-63.5,5.9-5.7,19.1-7.9,27.2-8.5,71.4-5.5,159.3,6.1,226.8-21.2,16.1-6.5,33-19.8,49.3-24.6ZM642.9,600.5l-6.8-.8c4.9-6.4,19-9.4,16.1-19.5-44.4,29.6-97.6,32.7-149.4,37.4l-115.3,1.8c-5.3,1.7-1.8,18.7-2.8,23.6l10.7,3.1c19.7,3.7,38.6,5.1,58.7,4,23.5-1.3,55.3-5.3,80.1-10.4,0,2.7-5.3,3-7.4,3.6-36.5,9.8-82.1,9.6-120.1,14.9-2.8.4-5.9-.4-8.9.4-9.5,2.5-11.7,21.8-11.3,30.4,2.7,2.8,35.3-.9,41.4-1.7,1.4-.2,2.3-1.5,2.7-1.6,55.4-8.8,186.5-45.4,226.7-83.3,3.6-3.4,9.4-7.1,3.5-11.8-6.4,2.6-11.8,6.9-17.8,10.2ZM386.4,659.9c-10.3-.8-17.7,3.4-30.6,1.7-3.3,7.7,16.3,38.9,23,29,1.5-2.2.6-9.8,1.5-13.8,1.4-6.4,4.4-10.9,6-16.9Z"/>
    <path class="st12" d="M343.9,592c4.2-1.3,11.4-1.5,16.1-3.4,1.7.1,1.1,2.2,0,3.5-4.9,5.8-32.2,12.6-40.8,18.6-11,7.8-14.2,29-19.5,40.8-4.7,1.4-3.8-3.6-3.4-6.8,4.2-32,17.9-43.5,47.6-52.7Z"/>
    <path class="st12" d="M605.5,678.6c-4.2,3.1-7.2,13.6-8.5,18.7-4.4.7-5.1-3.7-5.1-6.8-.5-.6-13.5,11.3-13.6,1.7,6.8-6.4,15.5-10.9,23.8-15.3l3.4,1.7Z"/>
    <path class="st12" d="M507,546.1c.2-8.5-1.8-26,8.5-28.9-5.4,31-.1,35.5,30.6,32.3l1.7,3.4c-.2,0-.6,2.2-2.9,3-13.3,4.5-29.8,2.7-37.9-9.8Z"/>
  </g>
</svg>